<?xml version="1.0" standalone="no"?>
<!DOCTYPE svg PUBLIC "-//W3C//DTD SVG 20010904//EN"
 "http://www.w3.org/TR/2001/REC-SVG-20010904/DTD/svg10.dtd">
<svg version="1.0" xmlns="http://www.w3.org/2000/svg"
 width="1330.000000pt" height="1330.000000pt" viewBox="0 0 1330.000000 1330.000000"
 preserveAspectRatio="xMidYMid meet">
<metadata>
Created by potrace 1.14, written by Peter Selinger 2001-2017
</metadata>
<g transform="translate(0.000000,1330.000000) scale(0.100000,-0.100000)"
fill="#000000" stroke="none">
<path d="M6320 13270 c0 -3 -35 -5 -77 -4 -43 0 -123 -3 -178 -8 -55 -4 -136
-10 -180 -13 -172 -11 -194 -13 -202 -18 -4 -2 -34 -4 -66 -3 -31 0 -58 -2
-60 -6 -1 -3 -24 -9 -52 -13 -98 -12 -110 -14 -130 -18 -11 -3 -48 -8 -82 -12
-73 -8 -98 -12 -136 -20 -22 -4 -27 -3 -21 7 4 7 -1 6 -12 -3 -10 -9 -41 -20
-69 -25 -49 -7 -57 -9 -72 -14 -5 -1 -12 -3 -18 -4 -10 -2 -96 -19 -105 -21
-3 -1 -25 -5 -50 -10 -25 -5 -47 -9 -50 -10 -3 -1 -16 -5 -30 -9 -14 -4 -36
-8 -50 -10 -14 -2 -32 -6 -40 -9 -38 -14 -65 -15 -79 -4 -12 10 -14 9 -8 -5 4
-12 2 -18 -8 -18 -18 0 -8 3 -105 -25 -44 -12 -83 -19 -85 -14 -3 4 -14 7 -25
6 -13 -1 -16 -5 -9 -13 7 -8 2 -13 -18 -17 -52 -10 -62 -13 -69 -20 -12 -12
-26 -8 -18 6 6 8 3 8 -9 -1 -9 -8 -21 -11 -27 -7 -5 3 -10 1 -10 -6 0 -6 -8
-9 -20 -6 -11 3 -17 1 -14 -4 5 -9 -9 -18 -38 -23 -28 -5 -103 -30 -113 -37
-8 -6 -84 -30 -105 -33 -9 -2 -74 -27 -105 -41 -36 -16 -94 -35 -107 -35 -5 0
-6 5 -3 10 3 6 -1 10 -10 10 -11 0 -15 -5 -11 -15 5 -14 -21 -31 -59 -39 -11
-2 -80 -32 -108 -47 -10 -5 -22 -7 -27 -4 -6 4 -10 1 -10 -4 0 -6 -6 -11 -12
-11 -7 0 -35 -12 -63 -26 -27 -13 -58 -23 -68 -20 -10 2 -21 -4 -27 -15 -6
-10 -15 -19 -20 -19 -15 0 -224 -102 -242 -118 -10 -8 -18 -12 -18 -8 0 4 -16
-2 -35 -14 -19 -12 -40 -18 -46 -14 -8 4 -9 3 -5 -4 4 -7 3 -12 -2 -12 -10 0
-228 -119 -263 -144 -26 -18 -43 -21 -34 -6 9 15 -2 12 -19 -6 -9 -8 -16 -11
-16 -5 0 6 -5 11 -11 11 -6 0 -9 -8 -7 -17 2 -12 -10 -28 -34 -45 -21 -16 -40
-28 -44 -28 -3 0 -52 -31 -110 -70 -107 -72 -121 -79 -108 -57 4 6 -14 -10
-40 -36 -33 -33 -53 -46 -64 -42 -9 3 -13 3 -10 -1 9 -8 -9 -26 -52 -50 -19
-10 -39 -25 -43 -31 -4 -7 -13 -13 -20 -13 -7 0 -18 -9 -25 -21 -8 -12 -19
-18 -28 -15 -8 3 -13 2 -10 -2 3 -5 -9 -19 -26 -33 -17 -13 -38 -32 -48 -43
-11 -10 -24 -15 -31 -11 -8 5 -10 4 -5 -3 4 -6 -5 -18 -19 -28 -14 -9 -42 -33
-64 -53 -21 -20 -54 -49 -73 -66 -156 -136 -203 -180 -342 -323 -38 -40 -73
-69 -77 -66 -5 3 -8 1 -7 -4 3 -11 -53 -82 -119 -150 -24 -24 -43 -47 -43 -49
0 -10 -100 -128 -120 -143 -11 -8 -20 -18 -20 -23 0 -10 -116 -173 -142 -199
-15 -15 -16 -58 -13 -510 2 -271 6 -1080 10 -1798 6 -1388 15 -2979 19 -3375
1 -132 -2 -245 -6 -252 -5 -6 -5 -14 2 -18 5 -3 10 -4 10 -1 0 2 39 -14 88
-36 93 -43 131 -59 147 -64 26 -7 160 -70 163 -76 2 -5 12 -8 22 -8 10 0 43
-13 74 -29 31 -17 56 -28 56 -25 0 2 24 -8 53 -23 28 -15 57 -28 62 -29 16 -4
316 -134 345 -149 14 -8 43 -21 65 -30 78 -33 90 -38 110 -45 11 -5 49 -22 85
-38 36 -17 68 -31 73 -31 4 0 31 -13 60 -28 28 -15 57 -28 63 -29 6 -1 35 -13
65 -27 30 -13 73 -33 97 -42 23 -10 42 -24 42 -32 0 -10 6 -12 21 -8 12 4 31
3 43 -3 11 -6 35 -16 53 -23 26 -11 30 -16 20 -29 -11 -13 -10 -13 6 -1 11 9
21 10 30 4 6 -5 35 -18 62 -28 28 -10 84 -34 125 -54 41 -20 77 -36 80 -36 4
0 56 -21 200 -82 19 -9 48 -21 64 -29 16 -8 35 -14 43 -14 7 0 16 -7 19 -15 4
-8 10 -13 15 -10 4 3 16 1 26 -4 29 -16 122 -57 202 -89 l75 -29 434 1 c323 1
439 -2 455 -11 12 -7 18 -12 14 -13 -4 0 1 -10 13 -22 11 -12 20 -27 20 -34 0
-6 7 -17 15 -24 8 -6 14 -15 13 -18 -3 -12 26 -67 42 -79 8 -7 11 -13 7 -13
-5 0 -1 -10 7 -22 9 -12 16 -32 16 -45 0 -12 6 -26 13 -30 8 -4 19 -30 26 -58
7 -27 16 -54 21 -60 16 -20 49 -120 52 -158 1 -20 5 -37 10 -37 4 0 10 -16 14
-35 3 -19 9 -35 13 -35 4 0 8 -8 9 -17 4 -38 8 -50 31 -81 13 -19 21 -41 18
-53 -3 -10 -1 -17 4 -14 7 5 43 -49 44 -67 0 -5 4 -7 8 -5 5 1 15 -10 23 -25
8 -16 19 -28 24 -28 6 0 10 -6 10 -13 0 -7 10 -24 23 -38 30 -34 47 -65 47
-87 0 -10 3 -22 7 -26 5 -4 8 -15 9 -24 0 -9 4 -24 7 -32 4 -8 8 -96 11 -195
2 -99 5 -189 6 -200 1 -11 -1 -32 -3 -47 -2 -16 0 -26 6 -25 7 1 18 -58 29
-148 20 -165 22 -183 30 -205 3 -8 11 -58 18 -110 7 -52 16 -100 21 -106 6 -7
9 -16 8 -20 -1 -5 0 -16 4 -24 31 -81 22 -382 -12 -425 -5 -5 -11 -28 -13 -50
-5 -46 -29 -115 -39 -115 -4 0 -6 -15 -5 -32 2 -18 -1 -37 -5 -43 -28 -39 -27
-325 2 -325 5 0 18 -8 28 -18 41 -36 52 -44 78 -48 14 -3 33 -8 42 -12 25 -12
98 -7 115 7 21 18 28 84 17 166 -11 85 -15 102 -24 111 -4 4 -7 25 -7 47 l0
40 21 -27 c11 -14 26 -26 34 -26 7 0 21 -12 31 -28 9 -15 26 -35 37 -44 10 -9
16 -22 12 -27 -3 -7 0 -8 9 -5 10 4 18 -1 23 -12 4 -11 15 -26 25 -35 10 -9
18 -21 18 -27 0 -6 9 -16 20 -22 11 -6 20 -17 20 -25 0 -7 11 -22 25 -33 14
-11 25 -23 25 -26 0 -13 143 -155 151 -151 4 3 10 1 14 -5 3 -6 49 -10 104
-10 l99 0 36 43 c20 23 44 51 53 62 10 11 18 22 18 25 6 61 79 144 136 155 12
3 25 8 28 13 11 16 84 6 100 -14 9 -10 22 -20 30 -22 20 -4 61 -33 61 -43 0
-5 6 -9 13 -9 7 0 33 -21 57 -46 25 -25 61 -54 80 -65 19 -11 50 -30 67 -43
44 -32 100 -42 122 -22 10 9 20 14 23 11 3 -3 16 6 29 21 13 15 35 39 49 54
31 34 43 52 75 113 14 26 35 57 45 67 11 11 19 23 19 26 -3 11 25 44 38 44 7
0 29 9 49 19 36 20 56 19 84 -4 8 -7 24 -15 35 -19 25 -8 140 -115 148 -139 4
-9 12 -17 19 -17 7 0 31 -25 53 -54 25 -34 50 -56 66 -60 15 -3 33 -11 40 -18
8 -8 19 -13 24 -13 15 1 75 38 75 47 0 4 9 17 19 27 11 11 26 33 34 48 18 34
82 103 95 103 6 0 19 16 31 35 11 19 24 34 28 33 16 -3 63 14 74 28 6 8 20 14
29 14 10 0 20 4 22 10 2 5 15 11 31 12 15 1 27 6 27 10 0 4 25 8 55 8 30 0 55
-4 55 -8 0 -4 8 -8 19 -9 22 -2 131 -70 131 -83 0 -5 9 -11 19 -15 12 -3 18
-12 15 -20 -11 -26 43 -49 115 -48 58 1 74 5 109 29 45 32 70 92 58 140 -7 27
-60 84 -77 84 -5 0 -9 4 -9 9 0 5 -12 23 -26 40 -14 17 -23 31 -20 31 4 0 0
13 -9 30 -11 21 -16 65 -17 157 -2 118 -4 131 -27 168 -14 22 -34 47 -44 57
-26 23 -127 161 -127 173 0 5 -11 20 -24 33 -13 12 -23 30 -21 40 1 9 -2 25
-7 35 -5 9 -5 23 -1 30 4 6 9 41 10 77 3 71 11 137 20 160 3 8 7 22 9 30 1 8
5 26 7 40 3 14 8 49 11 78 4 30 11 62 16 72 6 10 10 30 10 44 0 14 5 28 10 31
6 4 8 11 4 16 -3 5 0 17 8 26 7 9 13 31 13 50 1 18 7 41 15 51 8 9 16 28 18
42 2 14 10 38 18 54 8 16 14 35 14 43 0 7 4 13 8 13 5 0 9 6 10 13 1 14 4 24
20 84 15 51 9 228 -8 248 -7 8 -9 15 -5 15 4 0 2 6 -4 14 -15 18 2 49 52 99
21 20 35 37 31 37 -4 0 5 9 20 21 14 11 26 25 26 30 0 6 12 26 28 45 15 18 28
38 28 44 1 5 2 14 3 19 0 4 14 24 31 42 16 19 30 43 30 55 0 11 3 24 7 28 4 3
8 13 9 20 1 7 9 29 17 47 9 19 18 52 21 74 8 55 11 66 25 100 7 17 13 39 14
50 0 11 5 26 11 34 9 12 8 13 -3 6 -11 -6 -13 -4 -7 11 8 19 15 73 19 156 1
25 5 50 10 54 4 4 229 8 499 9 l493 1 75 36 c41 19 106 48 144 63 38 15 77 31
85 35 25 13 55 23 64 22 4 -1 7 2 7 8 0 6 3 9 8 8 8 -1 22 4 109 43 34 15 64
25 67 21 3 -3 6 1 6 8 0 7 3 11 6 8 3 -3 59 18 124 48 66 30 124 54 129 54 5
0 26 9 48 20 34 17 97 44 115 49 4 1 46 19 93 41 47 21 85 37 85 35 0 -3 17 4
37 15 21 11 41 20 46 20 4 0 46 18 93 40 47 22 88 40 91 40 2 0 23 9 46 19 23
11 76 33 117 49 41 17 102 42 135 57 68 31 98 43 105 42 3 0 25 10 49 22 45
23 228 100 246 104 6 1 12 4 15 7 6 6 61 30 230 100 69 29 134 57 145 63 11 6
56 25 100 43 l80 33 -1 1303 c0 717 -3 1546 -7 1843 -3 297 -9 1002 -11 1566
-5 970 -8 1070 -33 1080 -4 2 -39 51 -77 109 -79 120 -217 306 -270 365 -34
38 -47 63 -26 50 6 -3 10 -1 10 5 0 7 -6 10 -14 7 -11 -5 -96 73 -96 88 0 12
-430 440 -490 488 -73 58 -139 120 -135 127 3 4 -3 14 -12 21 -12 10 -14 10
-9 2 17 -30 -12 -11 -143 95 -18 15 -45 38 -60 52 -14 14 -30 25 -34 25 -5 0
-14 8 -21 17 -7 10 -16 15 -19 11 -4 -3 -9 2 -13 11 -3 9 -15 16 -26 16 -23 0
-70 45 -59 56 3 4 1 4 -5 1 -9 -5 -121 59 -161 93 -7 5 -14 10 -17 10 -2 0
-48 27 -101 61 -53 33 -124 76 -158 95 -34 18 -61 37 -60 42 1 5 -4 9 -12 9
-13 0 -126 53 -135 64 -3 3 -26 16 -52 28 -27 13 -48 27 -48 31 0 5 -12 10
-27 12 -17 2 -27 8 -25 16 1 8 -2 11 -8 7 -5 -3 -27 2 -48 13 -57 29 -163 79
-207 98 -22 9 -68 30 -101 46 -34 15 -64 28 -67 28 -2 0 -22 8 -43 17 -22 9
-41 17 -44 18 -3 1 -22 9 -44 18 -21 9 -45 17 -52 17 -8 0 -14 5 -14 10 0 6
-3 9 -7 8 -5 -1 -21 2 -36 7 -22 6 -26 10 -15 17 10 7 9 8 -5 4 -24 -8 -99 23
-90 38 4 7 2 7 -7 -1 -10 -9 -21 -8 -49 6 -20 10 -73 28 -118 41 -46 13 -79
28 -76 33 3 6 1 7 -5 3 -5 -3 -66 12 -134 35 -67 22 -132 42 -143 44 -11 2
-42 10 -70 18 -54 15 -134 35 -176 42 -14 3 -46 12 -70 20 -24 9 -59 18 -78
21 -53 9 -65 11 -109 25 -23 6 -40 15 -38 18 2 3 -15 7 -37 7 -63 2 -127 12
-179 28 -26 7 -49 12 -52 9 -2 -3 -20 0 -38 6 -18 6 -60 14 -93 17 -33 4 -67
7 -75 8 -9 1 -20 5 -26 8 -5 4 -19 6 -29 4 -10 -1 -44 3 -75 9 -31 6 -67 10
-79 8 -12 -2 -20 0 -18 4 3 5 -11 8 -31 9 -21 0 -59 4 -87 7 -27 4 -82 9 -121
12 -58 4 -113 11 -219 27 -5 0 -21 -2 -34 -6 -13 -5 -21 -4 -18 0 3 5 -70 11
-162 13 -260 6 -631 7 -631 1z"/>
<path d="M2090 11931 c0 -8 -7 -11 -17 -6 -15 5 -16 4 -5 -6 9 -10 15 -10 24
-1 6 6 9 15 5 19 -4 3 -7 1 -7 -6z"/>
</g>
</svg>
